<svg width="450" height="116" viewBox="0 0 450 116" fill="none" xmlns="http://www.w3.org/2000/svg">
<path d="M23.1797 89.9989H8.12109L8.23828 75.8192H23.1797C27.3203 75.8192 30.543 75.0771 32.8477 73.5927C35.1523 72.1083 36.7734 69.7646 37.7109 66.5614C38.6875 63.3583 39.1758 59.1591 39.1758 53.9638V40.663C39.1758 36.7177 38.9219 33.3778 38.4141 30.6435C37.9062 27.87 37.0469 25.6435 35.8359 23.9638C34.625 22.245 33.0039 20.9755 30.9727 20.1552C28.9414 19.3349 26.4219 18.9247 23.4141 18.9247H7.82812V4.68643H23.4141C28.3359 4.68643 32.8086 5.48721 36.832 7.08878C40.8555 8.69034 44.3125 11.0341 47.2031 14.12C50.0938 17.1669 52.3203 20.9364 53.8828 25.4286C55.4453 29.9208 56.2266 35.038 56.2266 40.7802V53.9638C56.2266 59.745 55.4453 64.8622 53.8828 69.3153C52.3203 73.7685 50.0938 77.538 47.2031 80.6239C44.3516 83.6708 40.8945 85.995 36.832 87.5966C32.7695 89.1982 28.2188 89.9989 23.1797 89.9989ZM18.082 4.68643V89.9989H0.914062V4.68643H18.082ZM95.8945 75.4091V46.1122C95.8945 44.1982 95.6602 42.6747 95.1914 41.5419C94.7617 40.4091 94.0977 39.5888 93.1992 39.081C92.3398 38.5341 91.2852 38.2607 90.0352 38.2607C88.6289 38.2607 87.457 38.5536 86.5195 39.1396C85.582 39.7255 84.8789 40.5653 84.4102 41.6591C83.9805 42.7528 83.7656 44.0614 83.7656 45.5849H67.3008C67.3008 42.8505 67.8281 40.2724 68.8828 37.8505C69.9375 35.3896 71.4805 33.2411 73.5117 31.4052C75.582 29.5302 78.043 28.0653 80.8945 27.0107C83.7461 25.956 86.9492 25.4286 90.5039 25.4286C94.7227 25.4286 98.4727 26.1513 101.754 27.5966C105.035 29.0028 107.633 31.2489 109.547 34.3349C111.461 37.4208 112.418 41.4247 112.418 46.3466V74.5888C112.418 78.1435 112.594 81.0341 112.945 83.2607C113.336 85.4872 113.902 87.4013 114.645 89.0028V89.9989H98.1211C97.3789 88.2411 96.8125 86.0536 96.4219 83.4364C96.0703 80.7802 95.8945 78.1044 95.8945 75.4091ZM97.8867 51.2685L97.9453 61.1122H91.9102C90.3477 61.1122 88.9805 61.3661 87.8086 61.8739C86.6758 62.3817 85.7188 63.1044 84.9375 64.0419C84.1562 64.9403 83.5703 65.995 83.1797 67.206C82.8281 68.4169 82.6523 69.706 82.6523 71.0732C82.6523 72.5966 82.8672 73.8857 83.2969 74.9403C83.7266 75.995 84.3711 76.7958 85.2305 77.3427C86.0898 77.8896 87.1055 78.163 88.2773 78.163C90.0742 78.163 91.6367 77.7919 92.9648 77.0497C94.293 76.3075 95.2695 75.4091 95.8945 74.3544C96.5586 73.2997 96.7734 72.3232 96.5391 71.4247L100.289 77.8114C99.8203 79.2567 99.1758 80.7607 98.3555 82.3232C97.5742 83.8857 96.5781 85.331 95.3672 86.6591C94.1562 87.9872 92.6523 89.081 90.8555 89.9403C89.0977 90.7607 87.0078 91.1708 84.5859 91.1708C81.1875 91.1708 78.082 90.3896 75.2695 88.8271C72.457 87.2646 70.2305 85.0771 68.5898 82.2646C66.9883 79.4521 66.1875 76.1122 66.1875 72.245C66.1875 69.0419 66.6953 66.1513 67.7109 63.5732C68.7656 60.956 70.3281 58.7489 72.3984 56.9521C74.4688 55.1161 77.0859 53.7099 80.25 52.7333C83.4141 51.7567 87.125 51.2685 91.3828 51.2685H97.8867ZM141.773 26.6005V89.9989H125.309V26.6005H141.773ZM124.547 10.1942C124.547 7.65518 125.348 5.56534 126.949 3.92471C128.59 2.24503 130.777 1.40518 133.512 1.40518C136.285 1.40518 138.473 2.24503 140.074 3.92471C141.676 5.56534 142.477 7.65518 142.477 10.1942C142.477 12.6942 141.656 14.7841 140.016 16.4638C138.414 18.1044 136.266 18.9247 133.57 18.9247C130.797 18.9247 128.59 18.1044 126.949 16.4638C125.348 14.7841 124.547 12.6942 124.547 10.1942ZM172.008 -0.00106812V89.9989H155.543V-0.00106812H172.008ZM200.953 82.7333L214.195 26.6005H231.305L210.445 99.4911C209.977 101.093 209.332 102.811 208.512 104.647C207.691 106.522 206.598 108.28 205.23 109.921C203.902 111.6 202.223 112.968 200.191 114.022C198.16 115.077 195.719 115.604 192.867 115.604C191.422 115.604 190.25 115.507 189.352 115.311C188.492 115.155 187.398 114.882 186.07 114.491V101.718C186.422 101.718 186.754 101.718 187.066 101.718C187.418 101.757 187.75 101.776 188.062 101.776C189.898 101.776 191.363 101.522 192.457 101.015C193.551 100.546 194.43 99.8036 195.094 98.788C195.797 97.7724 196.383 96.5028 196.852 94.9794L200.953 82.7333ZM197.555 26.6005L207.398 72.0692L209.625 90.5849L198.551 91.6396L179.977 26.6005H197.555ZM289.195 89.9989H274.137L274.254 75.8192H289.195C293.336 75.8192 296.559 75.0771 298.863 73.5927C301.168 72.1083 302.789 69.7646 303.727 66.5614C304.703 63.3583 305.191 59.1591 305.191 53.9638V40.663C305.191 36.7177 304.938 33.3778 304.43 30.6435C303.922 27.87 303.062 25.6435 301.852 23.9638C300.641 22.245 299.02 20.9755 296.988 20.1552C294.957 19.3349 292.438 18.9247 289.43 18.9247H273.844V4.68643H289.43C294.352 4.68643 298.824 5.48721 302.848 7.08878C306.871 8.69034 310.328 11.0341 313.219 14.12C316.109 17.1669 318.336 20.9364 319.898 25.4286C321.461 29.9208 322.242 35.038 322.242 40.7802V53.9638C322.242 59.745 321.461 64.8622 319.898 69.3153C318.336 73.7685 316.109 77.538 313.219 80.6239C310.367 83.6708 306.91 85.995 302.848 87.5966C298.785 89.1982 294.234 89.9989 289.195 89.9989ZM284.098 4.68643V89.9989H266.93V4.68643H284.098ZM351.188 26.6005V89.9989H334.723V26.6005H351.188ZM333.961 10.1942C333.961 7.65518 334.762 5.56534 336.363 3.92471C338.004 2.24503 340.191 1.40518 342.926 1.40518C345.699 1.40518 347.887 2.24503 349.488 3.92471C351.09 5.56534 351.891 7.65518 351.891 10.1942C351.891 12.6942 351.07 14.7841 349.43 16.4638C347.828 18.1044 345.68 18.9247 342.984 18.9247C340.211 18.9247 338.004 18.1044 336.363 16.4638C334.762 14.7841 333.961 12.6942 333.961 10.1942ZM389.742 91.1708C385.406 91.1708 381.559 90.5067 378.199 89.1786C374.879 87.8505 372.066 85.9364 369.762 83.4364C367.457 80.8974 365.699 77.831 364.488 74.2372C363.277 70.6435 362.672 66.5419 362.672 61.9325V56.7177C362.672 51.5614 363.258 47.0497 364.43 43.1825C365.602 39.2763 367.262 35.995 369.41 33.3388C371.559 30.6825 374.195 28.7099 377.32 27.4208C380.484 26.0927 384.059 25.4286 388.043 25.4286C392.027 25.4286 395.523 26.0927 398.531 27.4208C401.578 28.7099 404.098 30.663 406.09 33.2802C408.082 35.8583 409.586 39.0614 410.602 42.8896C411.617 46.7177 412.125 51.1708 412.125 56.2489V63.7489H369.645V52.206H396.012V50.7411C396.012 48.163 395.738 46.0146 395.191 44.2958C394.645 42.538 393.785 41.2294 392.613 40.37C391.441 39.5107 389.879 39.081 387.926 39.081C386.285 39.081 384.898 39.413 383.766 40.0771C382.633 40.7411 381.734 41.7763 381.07 43.1825C380.406 44.5888 379.918 46.4247 379.605 48.6903C379.293 50.9169 379.137 53.5927 379.137 56.7177V61.9325C379.137 64.8622 379.391 67.3232 379.898 69.3153C380.406 71.2685 381.148 72.87 382.125 74.12C383.141 75.331 384.371 76.2099 385.816 76.7567C387.262 77.2646 388.941 77.5185 390.855 77.5185C393.746 77.5185 396.344 77.0107 398.648 75.995C400.992 74.9403 402.984 73.5146 404.625 71.7177L411.188 81.6786C410.055 83.163 408.492 84.6474 406.5 86.1317C404.508 87.6161 402.125 88.8271 399.352 89.7646C396.578 90.7021 393.375 91.1708 389.742 91.1708ZM449.273 26.6005V38.9638H416.93V26.6005H449.273ZM424.371 10.956H440.719V70.663C440.719 72.4208 440.895 73.7685 441.246 74.706C441.598 75.6435 442.125 76.3075 442.828 76.6982C443.57 77.0497 444.547 77.2255 445.758 77.2255C446.578 77.2255 447.34 77.1864 448.043 77.1083C448.746 76.9911 449.273 76.8739 449.625 76.7567V89.5888C448.336 90.0966 446.969 90.4872 445.523 90.7607C444.117 91.0341 442.438 91.1708 440.484 91.1708C437.203 91.1708 434.352 90.5458 431.93 89.2958C429.547 88.0458 427.691 86.0536 426.363 83.3192C425.035 80.5458 424.371 76.913 424.371 72.4208V10.956Z" fill="black"/>
</svg>
